<svg width="24" height="24" viewBox="0 0 24 24" fill="none" xmlns="http://www.w3.org/2000/svg">
<circle cx="12" cy="12.0001" r="12" fill="#FF3D17"/>
<path d="M9.0227 17.0001V7.20012H12.1167C12.7887 7.20012 13.3627 7.30279 13.8387 7.50812C14.3147 7.71346 14.6834 8.01679 14.9447 8.41812C15.206 8.81012 15.3367 9.29079 15.3367 9.86012C15.3367 10.3361 15.2294 10.7561 15.0147 11.1201C14.8 11.4748 14.4967 11.7641 14.1047 11.9881C14.59 12.2215 14.9634 12.5341 15.2247 12.9261C15.4954 13.3181 15.6307 13.7848 15.6307 14.3261C15.6307 14.8955 15.5047 15.3808 15.2527 15.7821C15.0007 16.1741 14.6414 16.4775 14.1747 16.6921C13.7174 16.8975 13.1667 17.0001 12.5227 17.0001H9.0227ZM10.1987 15.9361H12.4667C13.0827 15.9361 13.5634 15.7915 13.9087 15.5021C14.2634 15.2035 14.4407 14.7975 14.4407 14.2841C14.4407 13.7335 14.24 13.3041 13.8387 12.9961C13.4374 12.6788 12.8774 12.5201 12.1587 12.5201H10.1987V15.9361ZM10.1987 11.4981H12.4107C12.952 11.4981 13.3767 11.3535 13.6847 11.0641C13.9927 10.7748 14.1467 10.3735 14.1467 9.86012C14.1467 9.32812 13.9647 8.92212 13.6007 8.64212C13.246 8.35279 12.742 8.20812 12.0887 8.20812H10.1987V11.4981Z" fill="white"/>
</svg>
