<svg width="24" height="24" viewBox="0 0 24 24" fill="none" xmlns="http://www.w3.org/2000/svg">
<path d="M12 7.17578L12.0132 7.17798C13.9297 7.20049 15.7599 7.97874 17.1058 9.3435C18.4516 10.7083 19.2042 12.5492 19.2 14.4659V19.2H19.1962L19.1986 21.0038C19.1987 21.082 19.1834 21.1595 19.1535 21.2319C19.1237 21.3042 19.0798 21.3699 19.0245 21.4253C18.9692 21.4807 18.9035 21.5246 18.8312 21.5546C18.7589 21.5845 18.6814 21.6 18.6032 21.6H17.3954C17.2375 21.6 17.086 21.5372 16.9744 21.4255C16.8627 21.3139 16.8 21.1624 16.8 21.0045V14.4659C16.805 13.1855 16.3055 11.9546 15.4097 11.0397C14.5138 10.1249 13.2937 9.59976 12.0134 9.57798H9.61489C9.53196 9.55984 9.44551 9.5667 9.36648 9.5977C9.28745 9.6287 9.21939 9.68244 9.17092 9.75213C9.12244 9.82181 9.09572 9.90432 9.09414 9.98919C9.09255 10.0741 9.11619 10.1575 9.16204 10.229L10.7745 13.7712C10.806 13.8679 10.8049 13.9724 10.7712 14.0684C10.7375 14.1644 10.6731 14.2467 10.588 14.3026C10.503 14.3584 10.4019 14.3848 10.3004 14.3775C10.1989 14.3703 10.1026 14.3298 10.0263 14.2625L2.40991 8.39995L10.0263 2.49355C10.1026 2.42617 10.1989 2.38575 10.3004 2.3785C10.4019 2.37125 10.503 2.39758 10.5881 2.45344C10.6731 2.5093 10.7375 2.59158 10.7712 2.68761C10.8049 2.78364 10.8061 2.88808 10.7746 2.98485L9.16204 6.52707C9.11619 6.59852 9.09256 6.68195 9.09415 6.76682C9.09573 6.85169 9.12246 6.93419 9.17093 7.00387C9.21941 7.07355 9.28747 7.12729 9.3665 7.15828C9.44552 7.18927 9.53197 7.19613 9.61489 7.17798H12" fill="black"/>
</svg>
