<svg width="24" height="24" viewBox="0 0 24 24" fill="none" xmlns="http://www.w3.org/2000/svg">
<path d="M11.9865 9.57797C10.7062 9.59975 9.48609 10.1249 8.59023 11.0397C7.69437 11.9546 7.19489 13.1854 7.19994 14.4659V21.0045C7.19994 21.1624 7.13721 21.3139 7.02554 21.4255C6.91387 21.5372 6.76241 21.5999 6.60448 21.5999H5.39672C5.31846 21.5999 5.24097 21.5845 5.16868 21.5545C5.0964 21.5246 5.03072 21.4806 4.97543 21.4253C4.92013 21.3699 4.87629 21.3042 4.84642 21.2318C4.81655 21.1595 4.80123 21.082 4.80134 21.0037L4.80368 19.1999H4.79994V14.4659C4.79569 12.5491 5.5483 10.7082 6.89413 9.34349C8.23995 7.97873 10.0702 7.20048 11.9867 7.17797L11.9999 7.17577V7.17797H14.385C14.4679 7.19612 14.5544 7.18926 14.6334 7.15827C14.7124 7.12728 14.7805 7.07354 14.829 7.00386C14.8774 6.93418 14.9042 6.85168 14.9057 6.76681C14.9073 6.68194 14.8837 6.59851 14.8379 6.52706L13.2254 2.98486C13.1939 2.88809 13.195 2.78364 13.2287 2.68762C13.2624 2.59159 13.3268 2.50931 13.4118 2.45345C13.4969 2.39759 13.598 2.37125 13.6995 2.3785C13.801 2.38574 13.8973 2.42617 13.9736 2.49354L21.59 8.39994L13.9736 14.2625C13.8973 14.3298 13.801 14.3703 13.6995 14.3775C13.598 14.3848 13.4969 14.3584 13.4118 14.3026C13.3268 14.2467 13.2624 14.1644 13.2287 14.0684C13.195 13.9724 13.1938 13.8679 13.2253 13.7712L14.8378 10.229C14.8837 10.1575 14.9073 10.0741 14.9057 9.9892C14.9042 9.90432 14.8774 9.82182 14.829 9.75213C14.7805 9.68244 14.7124 9.6287 14.6334 9.5977C14.5544 9.5667 14.4679 9.55984 14.385 9.57798L11.9865 9.57797Z" fill="black"/>
</svg>
