<svg width="24" height="24" viewBox="0 0 24 24" fill="none" xmlns="http://www.w3.org/2000/svg">
<path d="M17.9831 16.8516V21.0046C17.9831 21.1625 17.9203 21.3139 17.8087 21.4256C17.697 21.5372 17.5456 21.6 17.3877 21.6H16.1799C16.1016 21.6 16.0241 21.5846 15.9518 21.5546C15.8795 21.5246 15.8139 21.4807 15.7586 21.4253C15.7033 21.3699 15.6594 21.3042 15.6296 21.2319C15.5997 21.1595 15.5844 21.082 15.5845 21.0038L15.5901 16.6746C15.6458 15.7495 15.4955 14.8236 15.15 13.9636C14.8045 13.1037 14.2724 12.3312 13.5921 11.7018L10.6542 9.223C10.6035 9.15495 10.5337 9.1035 10.4536 9.07514C10.3736 9.04678 10.287 9.0428 10.2047 9.0637C10.1224 9.0846 10.0482 9.12943 9.99139 9.19253C9.9346 9.25563 9.8978 9.33416 9.88565 9.41819L8.7838 13.1509C8.74421 13.2447 8.67488 13.3228 8.58651 13.3733C8.49814 13.4238 8.39562 13.4438 8.29474 13.4303C8.19387 13.4167 8.10024 13.3704 8.02829 13.2985C7.95633 13.2265 7.91003 13.1329 7.89653 13.032L6 3.59998L15.6057 4.13956C15.7075 4.13861 15.8067 4.17116 15.8882 4.23218C15.9696 4.29319 16.0287 4.3793 16.0564 4.47722C16.0841 4.57514 16.0788 4.67945 16.0414 4.77408C16.0039 4.86871 15.9364 4.9484 15.8492 5.00088L12.3105 6.62107C12.2291 6.64502 12.1566 6.69259 12.1022 6.75776C12.0478 6.82293 12.0139 6.90277 12.0049 6.98718C11.9959 7.0716 12.0121 7.15679 12.0515 7.23198C12.0909 7.30717 12.1518 7.36898 12.2263 7.40959L15.1753 9.89821C16.1321 10.7746 16.8808 11.8538 17.3666 13.0569C17.8524 14.26 18.0631 15.5566 17.9831 16.8516Z" fill="black"/>
</svg>
