<svg width="24" height="24" viewBox="0 0 24 24" fill="none" xmlns="http://www.w3.org/2000/svg">
<path d="M8.82472 9.89822L11.7737 7.40959C11.8482 7.36898 11.9091 7.30717 11.9485 7.23198C11.9879 7.15679 12.0041 7.0716 11.9951 6.98718C11.9861 6.90277 11.9522 6.82293 11.8978 6.75776C11.8434 6.69259 11.7709 6.64502 11.6894 6.62107L8.15074 5.00088C8.06356 4.9484 7.99605 4.86871 7.95861 4.77408C7.92118 4.67945 7.9159 4.57514 7.94358 4.47722C7.97127 4.3793 8.03039 4.29319 8.11183 4.23218C8.19327 4.17116 8.29251 4.13861 8.39427 4.13956L18 3.59998L16.1035 13.032C16.09 13.1328 16.0437 13.2265 15.9717 13.2985C15.8997 13.3704 15.8061 13.4167 15.7052 13.4303C15.6044 13.4438 15.5019 13.4238 15.4135 13.3733C15.3251 13.3228 15.2558 13.2447 15.2162 13.1509L14.1144 9.41819C14.1022 9.33416 14.0654 9.25563 14.0086 9.19253C13.9518 9.12943 13.8776 9.0846 13.7953 9.0637C13.713 9.0428 13.6264 9.04678 13.5464 9.07514C13.4664 9.1035 13.3965 9.15495 13.3458 9.223L10.4079 11.7017C9.72765 12.3311 9.19556 13.1036 8.85005 13.9636C8.50453 14.8235 8.35421 15.7494 8.40992 16.6745L8.41556 21.0037C8.41567 21.082 8.40036 21.1595 8.37048 21.2319C8.34061 21.3042 8.29677 21.3699 8.24147 21.4253C8.18617 21.4807 8.12049 21.5246 8.04819 21.5546C7.97589 21.5846 7.89839 21.6 7.82013 21.6H6.61229C6.45438 21.6 6.30294 21.5372 6.19129 21.4255C6.07963 21.3139 6.01691 21.1624 6.01691 21.0045V16.8516C5.93694 15.5566 6.14757 14.26 6.63339 13.0569C7.11921 11.8538 7.86792 10.7746 8.82472 9.89822Z" fill="black"/>
</svg>
