<svg width="24" height="24" viewBox="0 0 24 24" fill="none" xmlns="http://www.w3.org/2000/svg">
<path d="M17.4041 10.7597L13.8619 9.14717C13.7905 9.10131 13.7071 9.07768 13.6222 9.07926C13.5373 9.08084 13.4548 9.10756 13.3851 9.15605C13.3154 9.20453 13.2617 9.27259 13.2307 9.35162C13.1997 9.43065 13.1929 9.5171 13.211 9.60002V20.9958C13.211 21.0752 13.1954 21.1538 13.1651 21.2271C13.1347 21.3004 13.0902 21.367 13.0341 21.4231C12.978 21.4792 12.9114 21.5237 12.8381 21.554C12.7648 21.5844 12.6862 21.6 12.6069 21.6H11.4153C11.3359 21.6 11.2574 21.5844 11.184 21.554C11.1107 21.5237 11.0441 21.4792 10.988 21.4231C10.9319 21.367 10.8874 21.3004 10.8571 21.2271C10.8267 21.1538 10.8111 21.0752 10.8111 20.9958V9.60002C10.8292 9.5171 10.8224 9.43065 10.7914 9.35162C10.7604 9.27259 10.7067 9.20453 10.637 9.15605C10.5673 9.10757 10.4848 9.08085 10.3999 9.07927C10.3151 9.07769 10.2316 9.10132 10.1602 9.14717L6.61791 10.7597C6.52114 10.7912 6.4167 10.79 6.32067 10.7563C6.22464 10.7226 6.14236 10.6582 6.0865 10.5732C6.03064 10.4881 6.00431 10.387 6.01155 10.2855C6.0188 10.184 6.05923 10.0877 6.12661 10.0114L12.011 2.40002L17.8955 10.0114C17.9628 10.0877 18.0033 10.184 18.0105 10.2855C18.0177 10.387 17.9914 10.4881 17.9355 10.5732C17.8797 10.6582 17.7974 10.7226 17.7014 10.7563C17.6054 10.79 17.5009 10.7912 17.4041 10.7597Z" fill="black"/>
</svg>
