<svg width="24" height="24" viewBox="0 0 24 24" fill="none" xmlns="http://www.w3.org/2000/svg">
<path d="M20.4109 9.6V20.9958C20.4109 21.0752 20.3953 21.1537 20.3649 21.227C20.3346 21.3003 20.2901 21.3669 20.234 21.423C20.1779 21.4791 20.1113 21.5236 20.038 21.554C19.9646 21.5844 19.8861 21.6 19.8067 21.6H18.6151C18.5358 21.6 18.4572 21.5844 18.3839 21.554C18.3106 21.5237 18.244 21.4791 18.1879 21.423C18.1318 21.3669 18.0873 21.3003 18.0569 21.227C18.0266 21.1537 18.011 21.0752 18.011 20.9958V9.6C18.011 8.48609 17.5685 7.4178 16.7808 6.63015C15.9932 5.8425 14.9249 5.4 13.811 5.4C12.6971 5.4 11.6288 5.8425 10.8411 6.63015C10.0535 7.4178 9.61097 8.48609 9.61097 9.6V14.4H9.6C9.58185 14.4829 9.5887 14.5694 9.6197 14.6484C9.65069 14.7274 9.70443 14.7955 9.77411 14.844C9.84379 14.8924 9.92628 14.9192 10.0112 14.9207C10.096 14.9223 10.1795 14.8987 10.2509 14.8529L13.7931 13.2404C13.8899 13.2089 13.9943 13.2101 14.0903 13.2438C14.1864 13.2775 14.2686 13.3418 14.3245 13.4269C14.3803 13.5119 14.4067 13.613 14.3994 13.7145C14.3922 13.816 14.3518 13.9123 14.2844 13.9886L8.4 21.6L2.5155 13.9886C2.44813 13.9123 2.40771 13.816 2.40047 13.7145C2.39323 13.613 2.41956 13.5119 2.47542 13.4269C2.53127 13.3418 2.61355 13.2775 2.70957 13.2438C2.80559 13.2101 2.91003 13.2089 3.0068 13.2404L6.54901 14.8529C6.62045 14.8987 6.70389 14.9223 6.78877 14.9208C6.87365 14.9192 6.95616 14.8925 7.02585 14.844C7.09554 14.7955 7.14928 14.7274 7.18028 14.6484C7.21128 14.5694 7.21814 14.4829 7.2 14.4H7.21091V9.6C7.21091 7.84957 7.90626 6.17084 9.144 4.9331C10.3817 3.69536 12.0605 3 13.8109 3C15.5613 3 17.2401 3.69536 18.4778 4.9331C19.7156 6.17084 20.4109 7.84957 20.4109 9.6Z" fill="black"/>
</svg>
